<svg width="25" height="31" viewBox="0 0 25 31" fill="none" xmlns="http://www.w3.org/2000/svg">
<path d="M19.2771 0.546534L19.2789 5.75391C19.2789 5.94588 19.1711 6.12321 18.995 6.22072L0.000366211 16.7147V10.5956C0.000366211 10.3799 0.121638 10.18 0.319695 10.0709L18.4026 0.0760717C18.7896 -0.13783 19.2777 0.124824 19.2771 0.546534Z" fill="#E0064B"/>
<path d="M11.3164 17.3357L1.06799 10.9162C1.06799 10.9162 0.567662 10.6553 0.54938 10.3342C0.531098 10.013 0.815691 9.7973 0.815691 9.7973C0.815691 9.7973 0.505503 9.96854 0.320243 10.0709C0.211159 10.1313 0.113045 10.2294 0.0569795 10.3415C0.0265092 10.4037 0.00700818 10.4713 0.00152352 10.5402C-0.00091411 10.5694 0.000304703 10.5987 0.000304703 10.6279V17.4569C0.000304703 17.6465 0.101466 17.8238 0.269053 17.9286L5.40026 21.1426C5.59039 21.2615 5.83659 21.2682 6.03343 21.1597L11.289 18.2565C11.657 18.0529 11.6717 17.5581 11.3164 17.3357Z" fill="#FF0055"/>
<path d="M5.72314 29.9237L5.72131 24.7163C5.72131 24.5243 5.82918 24.347 6.0053 24.2495L24.9993 13.7555V19.8745C24.9993 20.0903 24.878 20.2902 24.68 20.3992L6.59764 30.3941C6.21067 30.608 5.72253 30.3454 5.72314 29.9237Z" fill="#E0064B"/>
<path d="M13.6838 13.1345L23.9322 19.554C23.9322 19.554 24.4325 19.8148 24.4508 20.136C24.4691 20.4571 24.1845 20.6729 24.1845 20.6729C24.1845 20.6729 24.463 20.5168 24.6799 20.3992C24.8457 20.309 24.9633 20.1488 24.9926 19.9629C24.9962 19.9416 24.9981 19.9196 24.9999 19.8952V13.0132C24.9999 12.8237 24.8987 12.6464 24.7311 12.5415L19.5999 9.32753C19.4098 9.20869 19.1636 9.20199 18.9668 9.31046L13.7112 12.2137C13.3925 12.391 13.3547 12.9224 13.6838 13.1345Z" fill="#FF0055"/>
</svg>
