<svg width="244" height="140" viewBox="0 0 244 140" fill="none" xmlns="http://www.w3.org/2000/svg">
<g filter="url(#filter0_bd_17360_124819)">
<rect x="40" y="20" width="164" height="60" rx="5" fill="url(#paint0_radial_17360_124819)" fill-opacity="0.45" shape-rendering="crispEdges"/>
<rect x="40.5" y="20.5" width="163" height="59" rx="4.5" stroke="url(#paint1_radial_17360_124819)" shape-rendering="crispEdges"/>
<rect x="40.5" y="20.5" width="163" height="59" rx="4.5" stroke="url(#paint2_linear_17360_124819)" shape-rendering="crispEdges"/>
</g>
<g clip-path="url(#clip0_17360_124819)">
<path d="M99.1406 49.8438C99.0781 49.6875 98.9531 49.5 98.8281 49.3438C98.6719 49.1875 98.5469 49.0625 98.4531 48.9375C98.3281 48.8125 98.1719 48.7188 97.9531 48.5938C97.7344 48.4688 97.5469 48.375 97.4219 48.3125C97.2969 48.25 97.0781 48.1563 96.8281 48.0625C96.5469 47.9688 96.3594 47.875 96.2344 47.8438C96.1094 47.8125 95.8906 47.7188 95.5781 47.625C94.7344 47.3438 94.1406 47.0938 93.7969 46.8438C93.4531 46.5938 93.2969 46.25 93.2969 45.7813C93.2969 45.2813 93.4844 44.9063 93.8281 44.625C94.1719 44.3438 94.6719 44.1875 95.2344 44.1875C96.4219 44.1875 97.2344 44.7188 97.7031 45.8438L97.7344 45.9375L99.1094 45.1563L99.0781 45.0938C98.7344 44.3438 98.2344 43.75 97.5781 43.3125C96.9219 42.875 96.1406 42.625 95.2344 42.625C94.2344 42.625 93.3906 42.9063 92.7031 43.5C92.0156 44.0938 91.6719 44.875 91.6719 45.8438C91.6719 46.25 91.7344 46.625 91.8906 46.9688C92.0469 47.2813 92.2031 47.5625 92.3906 47.75C92.5781 47.9375 92.8594 48.1563 93.2344 48.3438C93.6094 48.5313 93.9219 48.6563 94.1719 48.75C94.4219 48.8438 94.7656 48.9688 95.2344 49.0938C96.1719 49.375 96.8281 49.6563 97.2344 49.9375C97.6094 50.1875 97.7969 50.5625 97.7969 51.0625C97.7969 51.5625 97.6094 51.9375 97.2344 52.25C96.8594 52.5625 96.2656 52.6875 95.5469 52.6875C94.0156 52.6875 93.0781 52.0313 92.6406 50.7188L92.6094 50.625L91.2031 51.4375L91.2344 51.5C91.5469 52.375 92.0781 53.0625 92.8281 53.5313C93.5781 54.0313 94.4844 54.2813 95.5469 54.2813C96.7031 54.2813 97.6719 53.9688 98.3906 53.4063C99.1094 52.8125 99.4844 52 99.4844 51.0313C99.4844 50.7813 99.4531 50.5625 99.4219 50.3438C99.2656 50.1875 99.2031 50 99.1406 49.8438Z" fill="#170426"/>
<path d="M106.141 50.3438C106.141 51.2188 105.922 51.8438 105.516 52.2813C105.109 52.6875 104.578 52.9063 103.891 52.9063C103.297 52.9063 102.828 52.75 102.516 52.4063C102.172 52.0625 102.016 51.5938 102.016 50.9688V46.0625H100.484V51.0313C100.484 52.0625 100.766 52.875 101.359 53.4688C101.922 54.0625 102.703 54.375 103.641 54.375C104.734 54.375 105.547 53.9688 106.141 53.1875V54.1563H107.672V46.0625H106.141V50.3438Z" fill="#170426"/>
<path d="M113.922 45.8438C112.672 45.8438 111.703 46.3125 110.984 47.25V46.0625H109.453V57.3438H110.984V52.9688C111.672 53.9063 112.672 54.375 113.922 54.375C115.047 54.375 116.016 53.9688 116.828 53.125C117.609 52.3125 118.016 51.2812 118.016 50.0938C118.016 48.9062 117.609 47.9062 116.828 47.0625C116.047 46.25 115.047 45.8438 113.922 45.8438ZM113.766 47.3437C114.547 47.3437 115.203 47.625 115.703 48.125C116.234 48.6562 116.484 49.3125 116.484 50.0938C116.484 50.875 116.234 51.5312 115.703 52.0625C115.172 52.5938 114.516 52.8438 113.766 52.8438C112.984 52.8438 112.328 52.5625 111.797 52.0625C111.266 51.5312 111.016 50.875 111.016 50.0938C111.016 49.3125 111.266 48.6562 111.797 48.125C112.328 47.5937 112.984 47.3437 113.766 47.3437Z" fill="#170426"/>
<path d="M123.172 45.8438C121.922 45.8438 120.891 46.25 120.109 47.0625C119.328 47.875 118.922 48.9062 118.922 50.0938C118.922 51.3125 119.328 52.3438 120.141 53.1562C120.953 53.9688 121.984 54.375 123.266 54.375C124.828 54.375 126.047 53.75 126.828 52.5312L126.859 52.4688L125.547 51.7188L125.516 51.7813C125.047 52.5313 124.297 52.9062 123.297 52.9062C122.578 52.9062 121.953 52.7188 121.453 52.3438C120.984 51.9688 120.672 51.4688 120.516 50.8438H127.141V50.7812C127.172 50.5625 127.203 50.3438 127.203 50.1562C127.203 49 126.828 47.9687 126.078 47.1562C125.328 46.2812 124.359 45.8438 123.172 45.8438ZM123.172 47.3125C123.797 47.3125 124.328 47.5 124.797 47.875C125.234 48.25 125.516 48.7813 125.641 49.4375H120.516C120.641 48.8125 120.922 48.2812 121.391 47.9062C121.828 47.5 122.453 47.3125 123.172 47.3125Z" fill="#170426"/>
<path d="M130.016 47.1563V46.0625H128.484V54.1563H130.016V49.875C130.016 49.0312 130.266 48.4063 130.703 48.0313C131.172 47.6563 131.734 47.4688 132.391 47.5H132.484V45.9062H132.422C131.297 45.9062 130.484 46.3125 130.016 47.1563Z" fill="#170426"/>
<path d="M138.922 42.6562C137.297 42.6562 135.891 43.2187 134.797 44.3438C133.672 45.4688 133.109 46.875 133.109 48.5C133.109 50.125 133.672 51.5 134.797 52.625C135.922 53.75 137.297 54.3438 138.922 54.3438C140.547 54.3438 141.953 53.7813 143.078 52.625C144.203 51.5 144.766 50.0938 144.766 48.5C144.766 46.875 144.203 45.4688 143.078 44.3438C141.922 43.25 140.547 42.6562 138.922 42.6562ZM138.922 52.75C137.734 52.75 136.734 52.3438 135.922 51.5313C135.109 50.7188 134.703 49.6875 134.703 48.5C134.703 47.3125 135.109 46.2813 135.922 45.4688C136.734 44.6563 137.734 44.25 138.922 44.25C140.109 44.25 141.109 44.6563 141.922 45.4688C142.734 46.2813 143.141 47.3125 143.141 48.5C143.141 49.6875 142.734 50.7188 141.922 51.5313C141.109 52.3438 140.109 52.75 138.922 52.75Z" fill="#170426"/>
<path d="M150.547 45.8438C149.297 45.8438 148.328 46.3125 147.609 47.25V46.0625H146.078V57.3438H147.609V52.9688C148.297 53.9063 149.297 54.375 150.547 54.375C151.672 54.375 152.641 53.9688 153.453 53.125C154.234 52.3125 154.641 51.2812 154.641 50.0938C154.641 48.9062 154.234 47.9062 153.453 47.0625C152.641 46.25 151.672 45.8438 150.547 45.8438ZM150.359 47.3437C151.141 47.3437 151.797 47.625 152.297 48.125C152.828 48.6562 153.078 49.3125 153.078 50.0938C153.078 50.875 152.828 51.5312 152.297 52.0625C151.766 52.5938 151.109 52.8438 150.359 52.8438C149.578 52.8438 148.922 52.5625 148.391 52.0625C147.859 51.5312 147.609 50.875 147.609 50.0938C147.609 49.3125 147.859 48.6562 148.391 48.125C148.922 47.5937 149.578 47.3437 150.359 47.3437Z" fill="#170426"/>
<path d="M159.984 49.7812C159.547 49.625 159.109 49.5 158.672 49.4062C158.234 49.3125 157.891 49.1562 157.578 48.9688C157.297 48.8125 157.141 48.5625 157.141 48.2812C157.141 47.9688 157.266 47.7188 157.516 47.5625C157.766 47.375 158.109 47.3125 158.484 47.3125C159.297 47.3125 159.828 47.625 160.109 48.2812L160.141 48.375L161.453 47.6562L161.422 47.5937C161.172 47.0625 160.766 46.6562 160.266 46.3437C159.766 46.0625 159.172 45.9062 158.516 45.9062C157.703 45.9062 157.016 46.125 156.453 46.5938C155.891 47.0625 155.609 47.6563 155.609 48.3438C155.609 48.9062 155.766 49.3437 156.078 49.6875C156.391 50.0312 156.766 50.2812 157.234 50.4375C157.672 50.5938 158.109 50.7188 158.547 50.8438C158.984 50.9375 159.328 51.0937 159.641 51.2812C159.922 51.4687 160.078 51.6875 160.078 51.9687C160.078 52.3125 159.953 52.5625 159.672 52.7187C159.391 52.875 159.016 52.9687 158.578 52.9687C158.109 52.9687 157.703 52.875 157.359 52.6562C157.016 52.4375 156.797 52.1562 156.672 51.7812L156.641 51.6875L155.297 52.4375L155.328 52.5C155.578 53.0625 155.984 53.5312 156.547 53.875C157.109 54.2188 157.797 54.4062 158.578 54.4062C159.453 54.4062 160.203 54.1875 160.766 53.75C161.328 53.3125 161.641 52.6875 161.641 51.9687C161.641 51.4062 161.484 50.9375 161.172 50.5938C160.797 50.1562 160.422 49.9062 159.984 49.7812Z" fill="#170426"/>
<path d="M163.703 52.0938C163.391 52.0938 163.141 52.1875 162.922 52.4062C162.703 52.625 162.609 52.875 162.609 53.1875C162.609 53.5 162.703 53.75 162.922 53.9687C163.141 54.1875 163.391 54.2812 163.703 54.2812C164.016 54.2812 164.297 54.1562 164.484 53.9687C164.703 53.75 164.797 53.5 164.797 53.1875C164.797 52.875 164.703 52.625 164.484 52.4062C164.266 52.2187 164.016 52.0938 163.703 52.0938Z" fill="#170426"/>
<path d="M172.391 47.25C171.703 46.3125 170.703 45.8438 169.453 45.8438C168.328 45.8438 167.359 46.25 166.547 47.0938C165.766 47.9063 165.359 48.9375 165.359 50.125C165.359 51.3125 165.766 52.3125 166.547 53.1563C167.328 53.9688 168.328 54.4063 169.453 54.4063C170.703 54.4063 171.672 53.9375 172.391 53V54.1875H173.922V46.0625H172.391V47.25ZM169.641 52.875C168.859 52.875 168.203 52.5938 167.703 52.0938C167.172 51.5625 166.922 50.9063 166.922 50.125C166.922 49.3438 167.172 48.6875 167.703 48.1562C168.234 47.625 168.891 47.375 169.641 47.375C170.422 47.375 171.078 47.6562 171.609 48.1562C172.141 48.6875 172.391 49.3438 172.391 50.125C172.391 50.9063 172.141 51.5625 171.609 52.0938C171.078 52.5938 170.422 52.875 169.641 52.875Z" fill="#170426"/>
<path d="M177.234 46.0625H175.703V54.1562H177.234V46.0625Z" fill="#170426"/>
<path d="M176.484 44.75C176.766 44.75 176.984 44.6563 177.203 44.4688C177.391 44.2813 177.484 44.0313 177.484 43.75C177.484 43.4688 177.391 43.25 177.203 43.0313C177.016 42.8438 176.766 42.7188 176.484 42.7188C176.203 42.7188 175.953 42.8125 175.766 43.0313C175.578 43.2188 175.484 43.4688 175.484 43.75C175.484 44.0313 175.578 44.25 175.766 44.4688C175.953 44.6563 176.203 44.75 176.484 44.75Z" fill="#170426"/>
<path d="M82.3281 37.9356V42.2169C82.3281 42.3731 82.2344 42.5294 82.1094 42.5919L66.5156 51.2169V46.1856C66.5156 45.9981 66.6094 45.8419 66.7656 45.7481L81.6094 37.5606C81.9219 37.3731 82.3281 37.5919 82.3281 37.9356Z" fill="url(#paint3_linear_17360_124819)"/>
<path d="M75.7969 51.7188L67.3906 46.4688C67.3906 46.4688 66.9844 46.25 66.9531 46C66.9531 45.75 67.1719 45.5625 67.1719 45.5625C67.1719 45.5625 66.9219 45.7188 66.7656 45.7813C66.6094 45.875 66.5469 46 66.5469 46C66.5156 46.0625 66.5156 46.125 66.5156 46.1875V51.8438C66.5156 52 66.6094 52.1562 66.7344 52.2188L70.9531 54.8438C71.1094 54.9375 71.2969 54.9375 71.4844 54.8438L75.7969 52.4688C76.0781 52.3125 76.0781 51.9063 75.7969 51.7188Z" fill="#FF0055"/>
<path d="M71.2031 62.0625V57.7812C71.2031 57.625 71.2969 57.4687 71.4219 57.4062L87.0156 48.7812V53.8125C87.0156 54 86.9219 54.1562 86.7656 54.25L71.9219 62.4375C71.6094 62.625 71.2031 62.4062 71.2031 62.0625Z" fill="url(#paint4_linear_17360_124819)"/>
<path d="M77.7351 48.2812L86.1414 53.5625C86.1414 53.5625 86.5476 53.7812 86.5789 54.0312C86.5789 54.2813 86.3601 54.4688 86.3601 54.4688C86.3601 54.4688 86.6101 54.3125 86.7664 54.25C86.9226 54.1562 86.9851 54.0312 86.9851 54.0312C87.0164 53.9688 87.0164 53.9062 87.0164 53.8438V48.1875C87.0164 48.0313 86.9226 47.875 86.7976 47.8125L82.5789 45.1875C82.4226 45.0938 82.2351 45.0938 82.0476 45.1875L77.7664 47.5312C77.5164 47.6562 77.4851 48.0938 77.7351 48.2812Z" fill="#FF0055"/>
</g>
<defs>
<filter id="filter0_bd_17360_124819" x="-2" y="-22" width="248" height="162" filterUnits="userSpaceOnUse" color-interpolation-filters="sRGB">
<feFlood flood-opacity="0" result="BackgroundImageFix"/>
<feGaussianBlur in="BackgroundImageFix" stdDeviation="21"/>
<feComposite in2="SourceAlpha" operator="in" result="effect1_backgroundBlur_17360_124819"/>
<feColorMatrix in="SourceAlpha" type="matrix" values="0 0 0 0 0 0 0 0 0 0 0 0 0 0 0 0 0 0 127 0" result="hardAlpha"/>
<feOffset dy="20"/>
<feGaussianBlur stdDeviation="20"/>
<feComposite in2="hardAlpha" operator="out"/>
<feColorMatrix type="matrix" values="0 0 0 0 0.141176 0 0 0 0 0.196078 0 0 0 0 0.258824 0 0 0 0.05 0"/>
<feBlend mode="normal" in2="effect1_backgroundBlur_17360_124819" result="effect2_dropShadow_17360_124819"/>
<feBlend mode="normal" in="SourceGraphic" in2="effect2_dropShadow_17360_124819" result="shape"/>
</filter>
<radialGradient id="paint0_radial_17360_124819" cx="0" cy="0" r="1" gradientUnits="userSpaceOnUse" gradientTransform="translate(73.1593 20) rotate(28.3006) scale(136.265 87.5017)">
<stop stop-color="white"/>
<stop offset="1" stop-color="#FFF9F9" stop-opacity="0.08"/>
</radialGradient>
<radialGradient id="paint1_radial_17360_124819" cx="0" cy="0" r="1" gradientUnits="userSpaceOnUse" gradientTransform="translate(101.044 18.6217) rotate(37.5348) scale(89.8108 105.247)">
<stop stop-color="white" stop-opacity="0.87"/>
<stop offset="1" stop-color="white" stop-opacity="0.37"/>
</radialGradient>
<linearGradient id="paint2_linear_17360_124819" x1="118.811" y1="83.7213" x2="118.811" y2="18.2083" gradientUnits="userSpaceOnUse">
<stop stop-color="white" stop-opacity="0.04"/>
<stop offset="1" stop-color="white" stop-opacity="0.16"/>
</linearGradient>
<linearGradient id="paint3_linear_17360_124819" x1="81.1179" y1="40.4797" x2="63.3471" y2="50.3294" gradientUnits="userSpaceOnUse">
<stop offset="0.2181" stop-color="#E0004B"/>
<stop offset="0.5398" stop-color="#DF024B"/>
<stop offset="0.7254" stop-color="#DB0B4B"/>
<stop offset="0.8759" stop-color="#D5194C"/>
<stop offset="1" stop-color="#CC2B4D"/>
</linearGradient>
<linearGradient id="paint4_linear_17360_124819" x1="72.4246" y1="59.5184" x2="90.1954" y2="49.6687" gradientUnits="userSpaceOnUse">
<stop offset="0.2181" stop-color="#E0004B"/>
<stop offset="0.5398" stop-color="#DF024B"/>
<stop offset="0.7254" stop-color="#DB0B4B"/>
<stop offset="0.8759" stop-color="#D5194C"/>
<stop offset="1" stop-color="#CC2B4D"/>
</linearGradient>
<clipPath id="clip0_17360_124819">
<rect width="110.969" height="25" fill="white" transform="translate(66.5156 37.5)"/>
</clipPath>
</defs>
</svg>
