<svg width="143" height="32" viewBox="0 0 143 32" fill="none" xmlns="http://www.w3.org/2000/svg">
<g clip-path="url(#clip0_17572_124985)">
<path d="M41.7596 15.8001C41.6796 15.6001 41.5196 15.3601 41.3596 15.1601C41.1596 14.9601 40.9996 14.8001 40.8796 14.6401C40.7196 14.4801 40.5196 14.3601 40.2396 14.2001C39.9596 14.0401 39.7196 13.9201 39.5596 13.8401C39.3996 13.7601 39.1196 13.6401 38.7996 13.5201C38.4396 13.4001 38.1996 13.2801 38.0396 13.2401C37.8796 13.2001 37.5996 13.0801 37.1996 12.9601C36.1196 12.6001 35.3596 12.2801 34.9196 11.9601C34.4796 11.6401 34.2796 11.2001 34.2796 10.6001C34.2796 9.96006 34.5196 9.48006 34.9596 9.12006C35.3996 8.76006 36.0396 8.56006 36.7596 8.56006C38.2796 8.56006 39.3196 9.24006 39.9196 10.6801L39.9596 10.8001L41.7196 9.80006L41.6796 9.72006C41.2396 8.76006 40.5996 8.00006 39.7596 7.44006C38.9196 6.88006 37.9196 6.56006 36.7596 6.56006C35.4796 6.56006 34.3996 6.92006 33.5196 7.68006C32.6396 8.44006 32.1996 9.44006 32.1996 10.6801C32.1996 11.2001 32.2796 11.6801 32.4796 12.1201C32.6796 12.5201 32.8796 12.8801 33.1196 13.1201C33.3596 13.3601 33.7196 13.6401 34.1996 13.8801C34.6796 14.1201 35.0796 14.2801 35.3996 14.4001C35.7196 14.5201 36.1596 14.6801 36.7596 14.8401C37.9596 15.2001 38.7996 15.5601 39.3196 15.9201C39.7996 16.2401 40.0396 16.7201 40.0396 17.3601C40.0396 18.0001 39.7996 18.4801 39.3196 18.8801C38.8396 19.2801 38.0796 19.4401 37.1596 19.4401C35.1996 19.4401 33.9996 18.6001 33.4396 16.9201L33.3996 16.8001L31.5996 17.8401L31.6396 17.9201C32.0396 19.0401 32.7196 19.9201 33.6796 20.5201C34.6396 21.1601 35.7996 21.4801 37.1596 21.4801C38.6396 21.4801 39.8796 21.0801 40.7996 20.3601C41.7196 19.6001 42.1996 18.5601 42.1996 17.3201C42.1996 17.0001 42.1596 16.7201 42.1196 16.4401C41.9196 16.2401 41.8396 16.0001 41.7596 15.8001Z" fill="#170426"/>
<path d="M50.7205 16.44C50.7205 17.56 50.4405 18.36 49.9205 18.92C49.4005 19.44 48.7205 19.72 47.8405 19.72C47.0805 19.72 46.4805 19.52 46.0805 19.08C45.6405 18.64 45.4405 18.04 45.4405 17.24V10.96H43.4805V17.32C43.4805 18.64 43.8405 19.68 44.6005 20.44C45.3205 21.2 46.3205 21.6 47.5205 21.6C48.9205 21.6 49.9605 21.08 50.7205 20.08V21.32H52.6805V10.96H50.7205V16.44Z" fill="#170426"/>
<path d="M60.679 10.6802C59.079 10.6802 57.839 11.2802 56.919 12.4802V10.9602H54.959V25.4002H56.919V19.8002C57.799 21.0002 59.079 21.6002 60.679 21.6002C62.119 21.6002 63.359 21.0802 64.399 20.0002C65.399 18.9602 65.919 17.6402 65.919 16.1202C65.919 14.6002 65.399 13.3202 64.399 12.2402C63.399 11.2002 62.119 10.6802 60.679 10.6802ZM60.479 12.6002C61.479 12.6002 62.319 12.9602 62.959 13.6002C63.639 14.2802 63.959 15.1202 63.959 16.1202C63.959 17.1202 63.639 17.9602 62.959 18.6402C62.279 19.3202 61.439 19.6402 60.479 19.6402C59.479 19.6402 58.639 19.2802 57.959 18.6402C57.279 17.9602 56.959 17.1202 56.959 16.1202C56.959 15.1202 57.279 14.2802 57.959 13.6002C58.639 12.9202 59.479 12.6002 60.479 12.6002Z" fill="#170426"/>
<path d="M72.5201 10.6802C70.9201 10.6802 69.6001 11.2002 68.6001 12.2402C67.6001 13.2802 67.0801 14.6002 67.0801 16.1202C67.0801 17.6802 67.6001 19.0002 68.6401 20.0402C69.6801 21.0802 71.0001 21.6002 72.6401 21.6002C74.6401 21.6002 76.2001 20.8002 77.2001 19.2402L77.2401 19.1602L75.5601 18.2002L75.5201 18.2802C74.9201 19.2402 73.9601 19.7202 72.6801 19.7202C71.7601 19.7202 70.9601 19.4802 70.3201 19.0002C69.7201 18.5202 69.3201 17.8802 69.1201 17.0802H77.6001V17.0002C77.6401 16.7202 77.6801 16.4402 77.6801 16.2002C77.6801 14.7202 77.2001 13.4002 76.2401 12.3602C75.2801 11.2402 74.0401 10.6802 72.5201 10.6802ZM72.5201 12.5602C73.3201 12.5602 74.0001 12.8002 74.6001 13.2802C75.1601 13.7602 75.5201 14.4402 75.6801 15.2802H69.1201C69.2801 14.4802 69.6401 13.8002 70.2401 13.3202C70.8001 12.8002 71.6001 12.5602 72.5201 12.5602Z" fill="#170426"/>
<path d="M81.2803 12.36V10.96H79.3203V21.32H81.2803V15.84C81.2803 14.76 81.6003 13.96 82.1603 13.48C82.7603 13 83.4803 12.76 84.3203 12.8H84.4403V10.76H84.3603C82.9203 10.76 81.8803 11.28 81.2803 12.36Z" fill="#170426"/>
<path d="M92.6802 6.6001C90.6002 6.6001 88.8002 7.3201 87.4002 8.7601C85.9602 10.2001 85.2402 12.0001 85.2402 14.0801C85.2402 16.1601 85.9602 17.9201 87.4002 19.3601C88.8402 20.8001 90.6002 21.5601 92.6802 21.5601C94.7602 21.5601 96.5602 20.8401 98.0002 19.3601C99.4402 17.9201 100.16 16.1201 100.16 14.0801C100.16 12.0001 99.4402 10.2001 98.0002 8.7601C96.5202 7.3601 94.7602 6.6001 92.6802 6.6001ZM92.6802 19.5201C91.1602 19.5201 89.8802 19.0001 88.8402 17.9601C87.8002 16.9201 87.2802 15.6001 87.2802 14.0801C87.2802 12.5601 87.8002 11.2401 88.8402 10.2001C89.8802 9.1601 91.1602 8.6401 92.6802 8.6401C94.2002 8.6401 95.4802 9.1601 96.5202 10.2001C97.5602 11.2401 98.0802 12.5601 98.0802 14.0801C98.0802 15.6001 97.5602 16.9201 96.5202 17.9601C95.4802 19.0001 94.2002 19.5201 92.6802 19.5201Z" fill="#170426"/>
<path d="M107.56 10.6802C105.96 10.6802 104.72 11.2802 103.8 12.4802V10.9602H101.84V25.4002H103.8V19.8002C104.68 21.0002 105.96 21.6002 107.56 21.6002C109 21.6002 110.24 21.0802 111.28 20.0002C112.28 18.9602 112.8 17.6402 112.8 16.1202C112.8 14.6002 112.28 13.3202 111.28 12.2402C110.24 11.2002 109 10.6802 107.56 10.6802ZM107.32 12.6002C108.32 12.6002 109.16 12.9602 109.8 13.6002C110.48 14.2802 110.8 15.1202 110.8 16.1202C110.8 17.1202 110.48 17.9602 109.8 18.6402C109.12 19.3202 108.28 19.6402 107.32 19.6402C106.32 19.6402 105.48 19.2802 104.8 18.6402C104.12 17.9602 103.8 17.1202 103.8 16.1202C103.8 15.1202 104.12 14.2802 104.8 13.6002C105.48 12.9202 106.32 12.6002 107.32 12.6002Z" fill="#170426"/>
<path d="M119.639 15.72C119.079 15.52 118.519 15.36 117.959 15.24C117.399 15.12 116.959 14.92 116.559 14.68C116.199 14.48 115.999 14.16 115.999 13.8C115.999 13.4 116.159 13.08 116.479 12.88C116.799 12.64 117.239 12.56 117.719 12.56C118.759 12.56 119.439 12.96 119.799 13.8L119.839 13.92L121.519 13L121.479 12.92C121.159 12.24 120.639 11.72 119.999 11.32C119.359 10.96 118.599 10.76 117.759 10.76C116.719 10.76 115.839 11.04 115.119 11.64C114.399 12.24 114.039 13 114.039 13.88C114.039 14.6 114.239 15.16 114.639 15.6C115.039 16.04 115.519 16.36 116.119 16.56C116.679 16.76 117.239 16.92 117.799 17.08C118.359 17.2 118.799 17.4 119.199 17.64C119.559 17.88 119.759 18.16 119.759 18.52C119.759 18.96 119.599 19.28 119.239 19.48C118.879 19.68 118.399 19.8 117.839 19.8C117.239 19.8 116.719 19.68 116.279 19.4C115.839 19.12 115.559 18.76 115.399 18.28L115.359 18.16L113.639 19.12L113.679 19.2C113.999 19.92 114.519 20.52 115.239 20.96C115.959 21.4 116.839 21.64 117.839 21.64C118.959 21.64 119.919 21.36 120.639 20.8C121.359 20.24 121.759 19.44 121.759 18.52C121.759 17.8 121.559 17.2 121.159 16.76C120.679 16.2 120.199 15.88 119.639 15.72Z" fill="#170426"/>
<path d="M124.4 18.6802C124 18.6802 123.68 18.8002 123.4 19.0802C123.12 19.3602 123 19.6802 123 20.0802C123 20.4802 123.12 20.8002 123.4 21.0802C123.68 21.3602 124 21.4802 124.4 21.4802C124.8 21.4802 125.16 21.3202 125.4 21.0802C125.68 20.8002 125.8 20.4802 125.8 20.0802C125.8 19.6802 125.68 19.3602 125.4 19.0802C125.12 18.8402 124.8 18.6802 124.4 18.6802Z" fill="#170426"/>
<path d="M135.52 12.4802C134.64 11.2802 133.36 10.6802 131.76 10.6802C130.32 10.6802 129.08 11.2002 128.04 12.2802C127.04 13.3202 126.52 14.6402 126.52 16.1602C126.52 17.6802 127.04 18.9602 128.04 20.0402C129.04 21.0802 130.32 21.6402 131.76 21.6402C133.36 21.6402 134.6 21.0402 135.52 19.8402V21.3602H137.48V10.9602H135.52V12.4802ZM132 19.6802C131 19.6802 130.16 19.3202 129.52 18.6802C128.84 18.0002 128.52 17.1602 128.52 16.1602C128.52 15.1602 128.84 14.3202 129.52 13.6402C130.2 12.9602 131.04 12.6402 132 12.6402C133 12.6402 133.84 13.0002 134.52 13.6402C135.2 14.3202 135.52 15.1602 135.52 16.1602C135.52 17.1602 135.2 18.0002 134.52 18.6802C133.84 19.3202 133 19.6802 132 19.6802Z" fill="#170426"/>
<path d="M141.72 10.96H139.76V21.32H141.72V10.96Z" fill="#170426"/>
<path d="M140.76 9.28018C141.12 9.28018 141.4 9.16018 141.68 8.92018C141.92 8.68018 142.04 8.36018 142.04 8.00018C142.04 7.64018 141.92 7.36018 141.68 7.08018C141.44 6.84018 141.12 6.68018 140.76 6.68018C140.4 6.68018 140.08 6.80018 139.84 7.08018C139.6 7.32018 139.48 7.64018 139.48 8.00018C139.48 8.36018 139.6 8.64018 139.84 8.92018C140.08 9.16018 140.4 9.28018 140.76 9.28018Z" fill="#170426"/>
<path d="M20.24 0.557638V6.03764C20.24 6.23764 20.12 6.43763 19.96 6.51763L0 17.5576V11.1176C0 10.8776 0.12 10.6776 0.32 10.5576L19.32 0.0776378C19.72 -0.162362 20.24 0.117638 20.24 0.557638Z" fill="url(#paint0_linear_17572_124985)"/>
<path d="M11.88 18.2001L1.12 11.4801C1.12 11.4801 0.6 11.2001 0.56 10.8801C0.56 10.5601 0.84 10.3201 0.84 10.3201C0.84 10.3201 0.52 10.5201 0.32 10.6001C0.12 10.7201 0.04 10.8801 0.04 10.8801C0 10.9601 0 11.0401 0 11.1201V18.3601C0 18.5601 0.12 18.7601 0.28 18.8401L5.68 22.2001C5.88 22.3201 6.12 22.3201 6.36 22.2001L11.88 19.1601C12.24 18.9601 12.24 18.4401 11.88 18.2001Z" fill="#FF0055"/>
<path d="M6 31.4402V25.9602C6 25.7602 6.12 25.5602 6.28 25.4802L26.24 14.4402V20.8802C26.24 21.1202 26.12 21.3202 25.92 21.4402L6.92 31.9202C6.52 32.1602 6 31.8802 6 31.4402Z" fill="url(#paint1_linear_17572_124985)"/>
<path d="M14.3596 13.8L25.1196 20.56C25.1196 20.56 25.6396 20.84 25.6796 21.16C25.6796 21.48 25.3996 21.72 25.3996 21.72C25.3996 21.72 25.7196 21.52 25.9196 21.44C26.1196 21.32 26.1996 21.16 26.1996 21.16C26.2396 21.08 26.2396 21 26.2396 20.92V13.68C26.2396 13.48 26.1196 13.28 25.9596 13.2L20.5596 9.84C20.3596 9.72 20.1196 9.72 19.8796 9.84L14.3996 12.84C14.0796 13 14.0396 13.56 14.3596 13.8Z" fill="#FF0055"/>
</g>
<defs>
<linearGradient id="paint0_linear_17572_124985" x1="18.6909" y1="3.81404" x2="-4.05576" y2="16.4217" gradientUnits="userSpaceOnUse">
<stop offset="0.2181" stop-color="#E0004B"/>
<stop offset="0.5398" stop-color="#DF024B"/>
<stop offset="0.7254" stop-color="#DB0B4B"/>
<stop offset="0.8759" stop-color="#D5194C"/>
<stop offset="1" stop-color="#CC2B4D"/>
</linearGradient>
<linearGradient id="paint1_linear_17572_124985" x1="7.56348" y1="28.1837" x2="30.3101" y2="15.5761" gradientUnits="userSpaceOnUse">
<stop offset="0.2181" stop-color="#E0004B"/>
<stop offset="0.5398" stop-color="#DF024B"/>
<stop offset="0.7254" stop-color="#DB0B4B"/>
<stop offset="0.8759" stop-color="#D5194C"/>
<stop offset="1" stop-color="#CC2B4D"/>
</linearGradient>
<clipPath id="clip0_17572_124985">
<rect width="142.04" height="32" fill="white"/>
</clipPath>
</defs>
</svg>
