<svg width="86" height="87" viewBox="0 0 86 87" fill="none" xmlns="http://www.w3.org/2000/svg">
<g filter="url(#filter0_d_17360_124846)">
<circle cx="43.0005" cy="36.435" r="18.5825" fill="white"/>
</g>
<path d="M43.0011 32.7026L39.4171 42.4746H37.0371L33.4531 32.7026H35.5531L38.2411 40.4726L40.9151 32.7026H43.0011Z" fill="#584568"/>
<path d="M47.5503 42.5726C46.8689 42.5726 46.2529 42.456 45.7022 42.2226C45.1609 41.9893 44.7316 41.6533 44.4143 41.2146C44.0969 40.776 43.9336 40.258 43.9242 39.6606H46.0243C46.0522 40.062 46.1923 40.3793 46.4443 40.6126C46.7056 40.846 47.0603 40.9626 47.5083 40.9626C47.9656 40.9626 48.3249 40.8553 48.5863 40.6406C48.8476 40.4166 48.9783 40.1273 48.9783 39.7726C48.9783 39.4833 48.8896 39.2453 48.7122 39.0586C48.5349 38.872 48.3109 38.7273 48.0402 38.6246C47.7789 38.5126 47.4149 38.3913 46.9482 38.2606C46.3136 38.074 45.7956 37.892 45.3942 37.7146C45.0022 37.528 44.6616 37.2526 44.3722 36.8886C44.0922 36.5153 43.9522 36.0206 43.9522 35.4046C43.9522 34.826 44.0969 34.322 44.3862 33.8926C44.6756 33.4633 45.0816 33.1366 45.6042 32.9126C46.1269 32.6793 46.7243 32.5626 47.3963 32.5626C48.4043 32.5626 49.2209 32.81 49.8463 33.3046C50.4809 33.79 50.8309 34.4713 50.8963 35.3486H48.7402C48.7216 35.0126 48.5769 34.7373 48.3063 34.5226C48.0449 34.2986 47.6949 34.1866 47.2563 34.1866C46.8736 34.1866 46.5656 34.2846 46.3322 34.4806C46.1082 34.6766 45.9963 34.9613 45.9963 35.3346C45.9963 35.596 46.0802 35.8153 46.2483 35.9926C46.4256 36.1606 46.6403 36.3006 46.8923 36.4126C47.1536 36.5153 47.5176 36.6366 47.9843 36.7766C48.6189 36.9633 49.1369 37.15 49.5383 37.3366C49.9396 37.5233 50.2849 37.8033 50.5743 38.1766C50.8636 38.55 51.0083 39.04 51.0083 39.6466C51.0083 40.1693 50.8729 40.6546 50.6023 41.1026C50.3316 41.5506 49.9349 41.91 49.4122 42.1806C48.8896 42.442 48.2689 42.5726 47.5503 42.5726Z" fill="#584568"/>
<line x1="8.5" y1="35.9355" x2="19.5" y2="35.9355" stroke="#FF0055" stroke-linecap="round"/>
<line x1="65.791" y1="35.9355" x2="76.791" y2="35.9355" stroke="#FF0055" stroke-linecap="round"/>
<defs>
<filter id="filter0_d_17360_124846" x="0.417969" y="0.852539" width="85.1641" height="85.165" filterUnits="userSpaceOnUse" color-interpolation-filters="sRGB">
<feFlood flood-opacity="0" result="BackgroundImageFix"/>
<feColorMatrix in="SourceAlpha" type="matrix" values="0 0 0 0 0 0 0 0 0 0 0 0 0 0 0 0 0 0 127 0" result="hardAlpha"/>
<feOffset dy="7"/>
<feGaussianBlur stdDeviation="12"/>
<feColorMatrix type="matrix" values="0 0 0 0 0.141176 0 0 0 0 0.196078 0 0 0 0 0.258824 0 0 0 0.1 0"/>
<feBlend mode="normal" in2="BackgroundImageFix" result="effect1_dropShadow_17360_124846"/>
<feBlend mode="normal" in="SourceGraphic" in2="effect1_dropShadow_17360_124846" result="shape"/>
</filter>
</defs>
</svg>
